<?xml version="1.0" encoding="UTF-8" standalone="no"?>
<svg
xmlns="http://www.w3.org/2000/svg"
version="1.0"
width="800" height="800"
id="6-cube.svg">
<g style="stroke:#000000;stroke-width:3;stroke-opacity:1.0;">
<line x1="779.582" y1="400.000" x2="728.728" y2="589.791"/>
<line x1="640.646" y1="538.937" x2="589.791" y2="728.728"/>
<line x1="779.582" y1="400.000" x2="640.646" y2="538.937"/>
<line x1="728.728" y1="589.791" x2="589.791" y2="728.728"/>
<line x1="589.791" y1="450.854" x2="538.937" y2="640.646"/>
<line x1="450.854" y1="589.791" x2="400.000" y2="779.582"/>
<line x1="589.791" y1="450.854" x2="450.854" y2="589.791"/>
<line x1="538.937" y1="640.646" x2="400.000" y2="779.582"/>
<line x1="779.582" y1="400.000" x2="589.791" y2="450.854"/>
<line x1="728.728" y1="589.791" x2="538.937" y2="640.646"/>
<line x1="640.646" y1="538.937" x2="450.854" y2="589.791"/>
<line x1="589.791" y1="728.728" x2="400.000" y2="779.582"/>
<line x1="589.791" y1="349.146" x2="538.937" y2="538.937"/>
<line x1="450.854" y1="488.082" x2="400.000" y2="677.874"/>
<line x1="589.791" y1="349.146" x2="450.854" y2="488.082"/>
<line x1="538.937" y1="538.937" x2="400.000" y2="677.874"/>
<line x1="400.000" y1="400.000" x2="349.146" y2="589.791"/>
<line x1="261.063" y1="538.937" x2="210.209" y2="728.728"/>
<line x1="400.000" y1="400.000" x2="261.063" y2="538.937"/>
<line x1="349.146" y1="589.791" x2="210.209" y2="728.728"/>
<line x1="589.791" y1="349.146" x2="400.000" y2="400.000"/>
<line x1="538.937" y1="538.937" x2="349.146" y2="589.791"/>
<line x1="450.854" y1="488.082" x2="261.063" y2="538.937"/>
<line x1="400.000" y1="677.874" x2="210.209" y2="728.728"/>
<line x1="779.582" y1="400.000" x2="589.791" y2="349.146"/>
<line x1="728.728" y1="589.791" x2="538.937" y2="538.937"/>
<line x1="640.646" y1="538.937" x2="450.854" y2="488.082"/>
<line x1="589.791" y1="728.728" x2="400.000" y2="677.874"/>
<line x1="589.791" y1="450.854" x2="400.000" y2="400.000"/>
<line x1="538.937" y1="640.646" x2="349.146" y2="589.791"/>
<line x1="450.854" y1="589.791" x2="261.063" y2="538.937"/>
<line x1="400.000" y1="779.582" x2="210.209" y2="728.728"/>
<line x1="640.646" y1="261.063" x2="589.791" y2="450.854"/>
<line x1="501.709" y1="400.000" x2="450.854" y2="589.791"/>
<line x1="640.646" y1="261.063" x2="501.709" y2="400.000"/>
<line x1="589.791" y1="450.854" x2="450.854" y2="589.791"/>
<line x1="450.854" y1="311.918" x2="400.000" y2="501.709"/>
<line x1="311.918" y1="450.854" x2="261.063" y2="640.646"/>
<line x1="450.854" y1="311.918" x2="311.918" y2="450.854"/>
<line x1="400.000" y1="501.709" x2="261.063" y2="640.646"/>
<line x1="640.646" y1="261.063" x2="450.854" y2="311.918"/>
<line x1="589.791" y1="450.854" x2="400.000" y2="501.709"/>
<line x1="501.709" y1="400.000" x2="311.918" y2="450.854"/>
<line x1="450.854" y1="589.791" x2="261.063" y2="640.646"/>
<line x1="450.854" y1="210.209" x2="400.000" y2="400.000"/>
<line x1="311.918" y1="349.146" x2="261.063" y2="538.937"/>
<line x1="450.854" y1="210.209" x2="311.918" y2="349.146"/>
<line x1="400.000" y1="400.000" x2="261.063" y2="538.937"/>
<line x1="261.063" y1="261.063" x2="210.209" y2="450.854"/>
<line x1="122.126" y1="400.000" x2="71.272" y2="589.791"/>
<line x1="261.063" y1="261.063" x2="122.126" y2="400.000"/>
<line x1="210.209" y1="450.854" x2="71.272" y2="589.791"/>
<line x1="450.854" y1="210.209" x2="261.063" y2="261.063"/>
<line x1="400.000" y1="400.000" x2="210.209" y2="450.854"/>
<line x1="311.918" y1="349.146" x2="122.126" y2="400.000"/>
<line x1="261.063" y1="538.937" x2="71.272" y2="589.791"/>
<line x1="640.646" y1="261.063" x2="450.854" y2="210.209"/>
<line x1="589.791" y1="450.854" x2="400.000" y2="400.000"/>
<line x1="501.709" y1="400.000" x2="311.918" y2="349.146"/>
<line x1="450.854" y1="589.791" x2="261.063" y2="538.937"/>
<line x1="450.854" y1="311.918" x2="261.063" y2="261.063"/>
<line x1="400.000" y1="501.709" x2="210.209" y2="450.854"/>
<line x1="311.918" y1="450.854" x2="122.126" y2="400.000"/>
<line x1="261.063" y1="640.646" x2="71.272" y2="589.791"/>
<line x1="779.582" y1="400.000" x2="640.646" y2="261.063"/>
<line x1="728.728" y1="589.791" x2="589.791" y2="450.854"/>
<line x1="640.646" y1="538.937" x2="501.709" y2="400.000"/>
<line x1="589.791" y1="728.728" x2="450.854" y2="589.791"/>
<line x1="589.791" y1="450.854" x2="450.854" y2="311.918"/>
<line x1="538.937" y1="640.646" x2="400.000" y2="501.709"/>
<line x1="450.854" y1="589.791" x2="311.918" y2="450.854"/>
<line x1="400.000" y1="779.582" x2="261.063" y2="640.646"/>
<line x1="589.791" y1="349.146" x2="450.854" y2="210.209"/>
<line x1="538.937" y1="538.937" x2="400.000" y2="400.000"/>
<line x1="450.854" y1="488.082" x2="311.918" y2="349.146"/>
<line x1="400.000" y1="677.874" x2="261.063" y2="538.937"/>
<line x1="400.000" y1="400.000" x2="261.063" y2="261.063"/>
<line x1="349.146" y1="589.791" x2="210.209" y2="450.854"/>
<line x1="261.063" y1="538.937" x2="122.126" y2="400.000"/>
<line x1="210.209" y1="728.728" x2="71.272" y2="589.791"/>
<line x1="728.728" y1="210.209" x2="677.874" y2="400.000"/>
<line x1="589.791" y1="349.146" x2="538.937" y2="538.937"/>
<line x1="728.728" y1="210.209" x2="589.791" y2="349.146"/>
<line x1="677.874" y1="400.000" x2="538.937" y2="538.937"/>
<line x1="538.937" y1="261.063" x2="488.082" y2="450.854"/>
<line x1="400.000" y1="400.000" x2="349.146" y2="589.791"/>
<line x1="538.937" y1="261.063" x2="400.000" y2="400.000"/>
<line x1="488.082" y1="450.854" x2="349.146" y2="589.791"/>
<line x1="728.728" y1="210.209" x2="538.937" y2="261.063"/>
<line x1="677.874" y1="400.000" x2="488.082" y2="450.854"/>
<line x1="589.791" y1="349.146" x2="400.000" y2="400.000"/>
<line x1="538.937" y1="538.937" x2="349.146" y2="589.791"/>
<line x1="538.937" y1="159.354" x2="488.082" y2="349.146"/>
<line x1="400.000" y1="298.291" x2="349.146" y2="488.082"/>
<line x1="538.937" y1="159.354" x2="400.000" y2="298.291"/>
<line x1="488.082" y1="349.146" x2="349.146" y2="488.082"/>
<line x1="349.146" y1="210.209" x2="298.291" y2="400.000"/>
<line x1="210.209" y1="349.146" x2="159.354" y2="538.937"/>
<line x1="349.146" y1="210.209" x2="210.209" y2="349.146"/>
<line x1="298.291" y1="400.000" x2="159.354" y2="538.937"/>
<line x1="538.937" y1="159.354" x2="349.146" y2="210.209"/>
<line x1="488.082" y1="349.146" x2="298.291" y2="400.000"/>
<line x1="400.000" y1="298.291" x2="210.209" y2="349.146"/>
<line x1="349.146" y1="488.082" x2="159.354" y2="538.937"/>
<line x1="728.728" y1="210.209" x2="538.937" y2="159.354"/>
<line x1="677.874" y1="400.000" x2="488.082" y2="349.146"/>
<line x1="589.791" y1="349.146" x2="400.000" y2="298.291"/>
<line x1="538.937" y1="538.937" x2="349.146" y2="488.082"/>
<line x1="538.937" y1="261.063" x2="349.146" y2="210.209"/>
<line x1="488.082" y1="450.854" x2="298.291" y2="400.000"/>
<line x1="400.000" y1="400.000" x2="210.209" y2="349.146"/>
<line x1="349.146" y1="589.791" x2="159.354" y2="538.937"/>
<line x1="589.791" y1="71.272" x2="538.937" y2="261.063"/>
<line x1="450.854" y1="210.209" x2="400.000" y2="400.000"/>
<line x1="589.791" y1="71.272" x2="450.854" y2="210.209"/>
<line x1="538.937" y1="261.063" x2="400.000" y2="400.000"/>
<line x1="400.000" y1="122.126" x2="349.146" y2="311.918"/>
<line x1="261.063" y1="261.063" x2="210.209" y2="450.854"/>
<line x1="400.000" y1="122.126" x2="261.063" y2="261.063"/>
<line x1="349.146" y1="311.918" x2="210.209" y2="450.854"/>
<line x1="589.791" y1="71.272" x2="400.000" y2="122.126"/>
<line x1="538.937" y1="261.063" x2="349.146" y2="311.918"/>
<line x1="450.854" y1="210.209" x2="261.063" y2="261.063"/>
<line x1="400.000" y1="400.000" x2="210.209" y2="450.854"/>
<line x1="400.000" y1="20.418" x2="349.146" y2="210.209"/>
<line x1="261.063" y1="159.354" x2="210.209" y2="349.146"/>
<line x1="400.000" y1="20.418" x2="261.063" y2="159.354"/>
<line x1="349.146" y1="210.209" x2="210.209" y2="349.146"/>
<line x1="210.209" y1="71.272" x2="159.354" y2="261.063"/>
<line x1="71.272" y1="210.209" x2="20.418" y2="400.000"/>
<line x1="210.209" y1="71.272" x2="71.272" y2="210.209"/>
<line x1="159.354" y1="261.063" x2="20.418" y2="400.000"/>
<line x1="400.000" y1="20.418" x2="210.209" y2="71.272"/>
<line x1="349.146" y1="210.209" x2="159.354" y2="261.063"/>
<line x1="261.063" y1="159.354" x2="71.272" y2="210.209"/>
<line x1="210.209" y1="349.146" x2="20.418" y2="400.000"/>
<line x1="589.791" y1="71.272" x2="400.000" y2="20.418"/>
<line x1="538.937" y1="261.063" x2="349.146" y2="210.209"/>
<line x1="450.854" y1="210.209" x2="261.063" y2="159.354"/>
<line x1="400.000" y1="400.000" x2="210.209" y2="349.146"/>
<line x1="400.000" y1="122.126" x2="210.209" y2="71.272"/>
<line x1="349.146" y1="311.918" x2="159.354" y2="261.063"/>
<line x1="261.063" y1="261.063" x2="71.272" y2="210.209"/>
<line x1="210.209" y1="450.854" x2="20.418" y2="400.000"/>
<line x1="728.728" y1="210.209" x2="589.791" y2="71.272"/>
<line x1="677.874" y1="400.000" x2="538.937" y2="261.063"/>
<line x1="589.791" y1="349.146" x2="450.854" y2="210.209"/>
<line x1="538.937" y1="538.937" x2="400.000" y2="400.000"/>
<line x1="538.937" y1="261.063" x2="400.000" y2="122.126"/>
<line x1="488.082" y1="450.854" x2="349.146" y2="311.918"/>
<line x1="400.000" y1="400.000" x2="261.063" y2="261.063"/>
<line x1="349.146" y1="589.791" x2="210.209" y2="450.854"/>
<line x1="538.937" y1="159.354" x2="400.000" y2="20.418"/>
<line x1="488.082" y1="349.146" x2="349.146" y2="210.209"/>
<line x1="400.000" y1="298.291" x2="261.063" y2="159.354"/>
<line x1="349.146" y1="488.082" x2="210.209" y2="349.146"/>
<line x1="349.146" y1="210.209" x2="210.209" y2="71.272"/>
<line x1="298.291" y1="400.000" x2="159.354" y2="261.063"/>
<line x1="210.209" y1="349.146" x2="71.272" y2="210.209"/>
<line x1="159.354" y1="538.937" x2="20.418" y2="400.000"/>
<line x1="779.582" y1="400.000" x2="728.728" y2="210.209"/>
<line x1="728.728" y1="589.791" x2="677.874" y2="400.000"/>
<line x1="640.646" y1="538.937" x2="589.791" y2="349.146"/>
<line x1="589.791" y1="728.728" x2="538.937" y2="538.937"/>
<line x1="589.791" y1="450.854" x2="538.937" y2="261.063"/>
<line x1="538.937" y1="640.646" x2="488.082" y2="450.854"/>
<line x1="450.854" y1="589.791" x2="400.000" y2="400.000"/>
<line x1="400.000" y1="779.582" x2="349.146" y2="589.791"/>
<line x1="589.791" y1="349.146" x2="538.937" y2="159.354"/>
<line x1="538.937" y1="538.937" x2="488.082" y2="349.146"/>
<line x1="450.854" y1="488.082" x2="400.000" y2="298.291"/>
<line x1="400.000" y1="677.874" x2="349.146" y2="488.082"/>
<line x1="400.000" y1="400.000" x2="349.146" y2="210.209"/>
<line x1="349.146" y1="589.791" x2="298.291" y2="400.000"/>
<line x1="261.063" y1="538.937" x2="210.209" y2="349.146"/>
<line x1="210.209" y1="728.728" x2="159.354" y2="538.937"/>
<line x1="640.646" y1="261.063" x2="589.791" y2="71.272"/>
<line x1="589.791" y1="450.854" x2="538.937" y2="261.063"/>
<line x1="501.709" y1="400.000" x2="450.854" y2="210.209"/>
<line x1="450.854" y1="589.791" x2="400.000" y2="400.000"/>
<line x1="450.854" y1="311.918" x2="400.000" y2="122.126"/>
<line x1="400.000" y1="501.709" x2="349.146" y2="311.918"/>
<line x1="311.918" y1="450.854" x2="261.063" y2="261.063"/>
<line x1="261.063" y1="640.646" x2="210.209" y2="450.854"/>
<line x1="450.854" y1="210.209" x2="400.000" y2="20.418"/>
<line x1="400.000" y1="400.000" x2="349.146" y2="210.209"/>
<line x1="311.918" y1="349.146" x2="261.063" y2="159.354"/>
<line x1="261.063" y1="538.937" x2="210.209" y2="349.146"/>
<line x1="261.063" y1="261.063" x2="210.209" y2="71.272"/>
<line x1="210.209" y1="450.854" x2="159.354" y2="261.063"/>
<line x1="122.126" y1="400.000" x2="71.272" y2="210.209"/>
<line x1="71.272" y1="589.791" x2="20.418" y2="400.000"/>
</g>
<g style="stroke:#000000;stroke-width:3;fill:#ff0000">
<circle cx="779.582" cy="400.000" r="12"/>
<circle cx="728.728" cy="589.791" r="12"/>
<circle cx="640.646" cy="538.937" r="12"/>
<circle cx="589.791" cy="728.728" r="12"/>
<circle cx="538.937" cy="640.646" r="12"/>
<circle cx="400.000" cy="779.582" r="12"/>
<circle cx="450.854" cy="488.082" r="12"/>
<circle cx="400.000" cy="677.874" r="12"/>
<circle cx="210.209" cy="728.728" r="12"/>
<circle cx="640.646" cy="261.063" r="12"/>
<circle cx="501.709" cy="400.000" r="12"/>
<circle cx="450.854" cy="311.918" r="12"/>
<circle cx="400.000" cy="501.709" r="12"/>
<circle cx="311.918" cy="450.854" r="12"/>
<circle cx="261.063" cy="640.646" r="12"/>
<circle cx="311.918" cy="349.146" r="12"/>
<circle cx="122.126" cy="400.000" r="12"/>
<circle cx="71.272" cy="589.791" r="12"/>
<circle cx="728.728" cy="210.209" r="12"/>
<circle cx="677.874" cy="400.000" r="12"/>
<circle cx="488.082" cy="450.854" r="12"/>
<circle cx="538.937" cy="159.354" r="12"/>
<circle cx="488.082" cy="349.146" r="12"/>
<circle cx="400.000" cy="298.291" r="12"/>
<circle cx="349.146" cy="488.082" r="12"/>
<circle cx="298.291" cy="400.000" r="12"/>
<circle cx="159.354" cy="538.937" r="12"/>
<circle cx="589.791" cy="71.272" r="12"/>
<circle cx="400.000" cy="122.126" r="12"/>
<circle cx="349.146" cy="311.918" r="12"/>
<circle cx="400.000" cy="20.418" r="12"/>
<circle cx="261.063" cy="159.354" r="12"/>
<circle cx="210.209" cy="71.272" r="12"/>
<circle cx="159.354" cy="261.063" r="12"/>
<circle cx="71.272" cy="210.209" r="12"/>
<circle cx="20.418" cy="400.000" r="12"/>
</g>
<g style="stroke:#000000;stroke-width:3;fill:#ff7f00">
<circle cx="589.791" cy="450.854" r="12"/>
<circle cx="450.854" cy="589.791" r="12"/>
<circle cx="589.791" cy="349.146" r="12"/>
<circle cx="538.937" cy="538.937" r="12"/>
<circle cx="349.146" cy="589.791" r="12"/>
<circle cx="261.063" cy="538.937" r="12"/>
<circle cx="450.854" cy="210.209" r="12"/>
<circle cx="261.063" cy="261.063" r="12"/>
<circle cx="210.209" cy="450.854" r="12"/>
<circle cx="538.937" cy="261.063" r="12"/>
<circle cx="349.146" cy="210.209" r="12"/>
<circle cx="210.209" cy="349.146" r="12"/>
</g>
<g style="stroke:#000000;stroke-width:3;fill:#ffff00">
<circle cx="400.000" cy="400.000" r="12"/>
</g>
</svg>
